<?xml version="1.0" standalone="no"?>
<!DOCTYPE svg PUBLIC "-//W3C//DTD SVG 20010904//EN"
 "http://www.w3.org/TR/2001/REC-SVG-20010904/DTD/svg10.dtd">
<svg version="1.0" xmlns="http://www.w3.org/2000/svg"
 width="500.000000pt" height="500.000000pt" viewBox="0 0 500.000000 500.000000"
 preserveAspectRatio="xMidYMid meet">

<g transform="translate(0.000000,500.000000) scale(0.100000,-0.100000)"
fill="#000000" stroke="none">
<path d="M3541 3801 c-19 -13 -4 -33 17 -22 9 4 25 7 35 6 10 -2 16 2 14 8 -5
15 -47 20 -66 8z"/>
<path d="M3449 3769 c-9 -17 -8 -20 3 -16 7 2 12 10 10 16 -1 7 2 10 8 6 6 -3
8 -10 5 -15 -3 -5 -1 -12 5 -15 6 -4 10 -3 9 2 -3 20 2 27 11 13 8 -12 10 -11
10 8 0 30 -45 31 -61 1z"/>
<path d="M3498 3673 c7 -3 16 -2 19 1 4 3 -2 6 -13 5 -11 0 -14 -3 -6 -6z"/>
<path d="M3548 3663 c7 -3 16 -2 19 1 4 3 -2 6 -13 5 -11 0 -14 -3 -6 -6z"/>
<path d="M3543 3633 c9 -2 23 -2 30 0 6 3 -1 5 -18 5 -16 0 -22 -2 -12 -5z"/>
<path d="M3687 3590 c-4 -17 0 -20 28 -20 43 0 54 17 20 30 -37 14 -42 13 -48
-10z"/>
<path d="M3665 3539 c-27 -5 -99 -8 -160 -7 -105 3 -110 2 -113 -18 -6 -39 22
-49 142 -48 105 0 114 1 160 30 82 49 74 61 -29 43z"/>
<path d="M3504 3427 c-3 -8 -4 -41 -2 -73 l3 -59 51 -3 c65 -4 76 9 72 85 l-3
58 -58 3 c-42 2 -59 -1 -63 -11z"/>
<path d="M3667 3285 c3 -8 9 -12 14 -9 12 7 11 11 -5 17 -10 4 -13 1 -9 -8z"/>
<path d="M3428 3260 c-17 -29 -17 -30 7 -36 39 -10 57 2 53 33 -4 40 -38 42
-60 3z m36 4 c3 -8 2 -12 -4 -9 -6 3 -10 10 -10 16 0 14 7 11 14 -7z"/>
<path d="M3620 3280 c-8 -5 -36 -10 -62 -10 -43 0 -48 -2 -48 -22 0 -12 -10
-32 -21 -44 l-22 -23 26 -6 c39 -10 149 2 159 17 10 14 3 77 -9 89 -5 5 -15 4
-23 -1z"/>
<path d="M3196 3059 c-4 -30 -12 -59 -18 -67 -8 -9 -8 -16 -1 -23 12 -12 43
57 43 94 -1 50 -17 47 -24 -4z"/>
<path d="M3310 3034 c1 -36 2 -38 15 -20 19 25 19 31 0 46 -13 11 -15 7 -15
-26z"/>
<path d="M2867 2823 c-5 -4 -34 -15 -65 -23 -31 -8 -54 -19 -52 -25 3 -5 14
-9 25 -7 38 5 79 1 91 -8 8 -7 16 -5 24 5 21 26 53 39 88 36 17 -1 32 2 32 7
0 5 -12 9 -27 9 -16 0 -46 3 -68 7 -22 4 -44 4 -48 -1z"/>
<path d="M1060 1116 c-22 -46 -40 -89 -40 -95 0 -9 -17 -43 -37 -70 -1 -2 -14
4 -27 13 -50 32 -99 14 -112 -41 -8 -30 2 -49 38 -76 23 -17 28 -18 54 -4 29
15 44 39 84 132 12 28 33 73 46 102 13 28 24 59 24 67 0 25 29 19 42 -9 11
-24 28 -34 28 -17 0 18 -26 61 -42 71 -16 10 -23 1 -58 -73z m-108 -173 c24
-22 23 -39 -6 -68 -19 -19 -30 -22 -52 -16 -23 6 -30 14 -32 40 -2 18 2 39 9
47 16 19 58 18 81 -3z"/>
<path d="M1147 1083 c-4 -3 -7 -17 -7 -29 0 -16 -10 -29 -30 -39 -33 -17 -38
-25 -16 -25 23 0 65 42 72 73 6 25 -4 36 -19 20z"/>
</g>
</svg>
